<svg xmlns="http://www.w3.org/2000/svg" xmlns:xlink="http://www.w3.org/1999/xlink" width="500" zoomAndPan="magnify" viewBox="0 0 375 374.999991" height="500" preserveAspectRatio="xMidYMid meet" version="1.0"><defs><g/><clipPath id="0f7541ddf9"><path d="M 14 199 L 233 199 L 233 263 L 14 263 Z M 14 199 " clip-rule="nonzero"/></clipPath><clipPath id="cc2ef55079"><path d="M -3.425781 202.796875 L 199.757812 135.011719 L 232.539062 233.269531 L 29.355469 301.054688 Z M -3.425781 202.796875 " clip-rule="nonzero"/></clipPath><clipPath id="f911bd6b4e"><path d="M -3.425781 202.796875 L 214.746094 130.011719 L 247.527344 228.269531 L 29.355469 301.054688 Z M -3.425781 202.796875 " clip-rule="nonzero"/></clipPath><clipPath id="a4193ef290"><path d="M -3.425781 202.796875 L 214.746094 130.011719 L 247.527344 228.269531 L 29.355469 301.054688 Z M -3.425781 202.796875 " clip-rule="nonzero"/></clipPath></defs><g fill="#000000" fill-opacity="1"><g transform="translate(241.484687, 247.270813)"><g><path d="M 5.609375 -111.734375 C 4.628906 -112.128906 4.140625 -113.015625 4.140625 -114.390625 C 4.140625 -116.554688 5.023438 -117.640625 6.796875 -117.640625 C 8.179688 -117.640625 8.875 -116.851562 8.875 -115.28125 C 8.875 -114.882812 8.773438 -114.6875 8.578125 -114.6875 C 8.578125 -113.707031 8.28125 -112.921875 7.6875 -112.328125 C 7.09375 -111.734375 6.398438 -111.535156 5.609375 -111.734375 Z M -23.0625 26.609375 C -25.8125 27.390625 -28.222656 27.085938 -30.296875 25.703125 C -32.367188 24.328125 -33.503906 22.265625 -33.703125 19.515625 C -34.085938 15.960938 -33.789062 11.523438 -32.8125 6.203125 C -31.625 0.0976562 -29.847656 -5.710938 -27.484375 -11.234375 C -19.804688 -30.347656 -10.347656 -46.800781 0.890625 -60.59375 C 3.054688 -63.351562 4.140625 -66.210938 4.140625 -69.171875 C 3.941406 -70.148438 3.84375 -72.910156 3.84375 -77.453125 L 3.546875 -91.046875 C 3.546875 -91.441406 3.59375 -91.832031 3.6875 -92.21875 C 3.789062 -92.613281 3.84375 -93.007812 3.84375 -93.40625 C 4.238281 -94.789062 4.828125 -95.382812 5.609375 -95.1875 C 6.597656 -95.1875 7.289062 -94.691406 7.6875 -93.703125 C 8.28125 -92.128906 8.769531 -88.78125 9.15625 -83.65625 C 9.15625 -82.664062 9.203125 -81.085938 9.296875 -78.921875 C 9.398438 -76.753906 9.453125 -75.175781 9.453125 -74.1875 L 9.75 -73.609375 L 10.34375 -73.015625 C 10.9375 -72.617188 11.429688 -72.816406 11.828125 -73.609375 C 17.929688 -80.109375 24.234375 -85.722656 30.734375 -90.453125 L 36.0625 -94 C 36.257812 -94.195312 36.457031 -94.242188 36.65625 -94.140625 C 36.851562 -94.046875 36.953125 -93.898438 36.953125 -93.703125 C 37.148438 -93.503906 37.25 -93.109375 37.25 -92.515625 C 35.269531 -90.941406 33.691406 -89.757812 32.515625 -88.96875 C 25.421875 -83.65625 18.914062 -77.941406 13 -71.828125 C 10.832031 -69.265625 9.75 -66.703125 9.75 -64.140625 C 9.351562 -50.546875 8.765625 -41.484375 7.984375 -36.953125 C 5.023438 -20.203125 1.476562 -6.503906 -2.65625 4.140625 C -5.019531 10.242188 -8.664062 15.757812 -13.59375 20.6875 C -16.550781 23.644531 -19.707031 25.617188 -23.0625 26.609375 Z M -23.9375 24.234375 C -22.164062 24.035156 -20.59375 23.347656 -19.21875 22.171875 C -17.4375 20.785156 -15.859375 19.207031 -14.484375 17.4375 C -9.753906 11.914062 -6.304688 5.117188 -4.140625 -2.953125 C -0.785156 -14.191406 1.578125 -27.296875 2.953125 -42.265625 C 3.347656 -46.015625 3.546875 -51.925781 3.546875 -60 C 2.753906 -59.613281 2.257812 -59.320312 2.0625 -59.125 C 1.875 -58.726562 1.382812 -58.132812 0.59375 -57.34375 C -10.632812 -43.550781 -19.703125 -27.394531 -26.609375 -8.875 C -29.171875 -1.96875 -30.84375 4.535156 -31.625 10.640625 C -32.21875 13.003906 -32.316406 15.765625 -31.921875 18.921875 C -31.128906 23.648438 -28.46875 25.421875 -23.9375 24.234375 Z M -23.9375 24.234375 "/></g></g></g><g fill="#000000" fill-opacity="1"><g transform="translate(272.817023, 247.270813)"><g><path d="M 22.171875 -40.203125 C 18.617188 -40.597656 17.335938 -42.566406 18.328125 -46.109375 C 18.722656 -47.691406 19.3125 -48.875 20.09375 -49.65625 C 22.070312 -52.414062 23.75 -54.390625 25.125 -55.578125 C 31.039062 -61.679688 37.644531 -67.195312 44.9375 -72.125 L 50.84375 -76.265625 C 45.519531 -78.035156 39.804688 -78.921875 33.703125 -78.921875 L 11.828125 -77.15625 C 9.460938 -77.15625 7.6875 -77.347656 6.5 -77.734375 C 2.5625 -78.921875 0.890625 -81.191406 1.484375 -84.546875 C 2.066406 -90.847656 5.117188 -95.867188 10.640625 -99.609375 C 11.628906 -100.398438 13.007812 -100.597656 14.78125 -100.203125 C 15.757812 -99.804688 16.492188 -99.066406 16.984375 -97.984375 C 17.484375 -96.898438 17.335938 -95.867188 16.546875 -94.890625 C 16.347656 -94.691406 16.148438 -94.441406 15.953125 -94.140625 C 15.765625 -93.847656 15.519531 -93.601562 15.21875 -93.40625 C 14.925781 -93.207031 14.679688 -93.007812 14.484375 -92.8125 C 13.492188 -91.632812 12.210938 -89.664062 10.640625 -86.90625 C 9.460938 -84.144531 10.25 -82.664062 13 -82.46875 C 14.78125 -82.070312 17.441406 -81.675781 20.984375 -81.28125 C 22.566406 -81.28125 24.785156 -81.328125 27.640625 -81.421875 C 30.492188 -81.523438 32.613281 -81.578125 34 -81.578125 C 41.289062 -81.578125 47.300781 -80.59375 52.03125 -78.625 C 53.007812 -78.226562 54.289062 -78.425781 55.875 -79.21875 L 79.515625 -93.109375 C 79.910156 -93.304688 80.992188 -93.703125 82.765625 -94.296875 C 83.554688 -94.296875 84.050781 -94 84.25 -93.40625 C 84.832031 -92.8125 84.734375 -92.316406 83.953125 -91.921875 L 68.578125 -82.765625 L 57.9375 -76.5625 C 56.75 -75.769531 56.453125 -74.785156 57.046875 -73.609375 C 58.429688 -69.859375 58.132812 -66.015625 56.15625 -62.078125 C 50.050781 -50.648438 40.691406 -43.359375 28.078125 -40.203125 C 26.304688 -39.804688 24.335938 -39.804688 22.171875 -40.203125 Z M 23.0625 -43.453125 C 26.207031 -43.453125 28.671875 -43.847656 30.453125 -44.640625 C 38.328125 -47.203125 44.925781 -51.929688 50.25 -58.828125 C 51.820312 -60.398438 53.101562 -62.566406 54.09375 -65.328125 L 54.984375 -68.28125 C 54.984375 -69.46875 54.882812 -70.351562 54.6875 -70.9375 C 54.6875 -73.101562 53.703125 -73.597656 51.734375 -72.421875 C 41.878906 -66.503906 32.910156 -59.3125 24.828125 -50.84375 C 24.035156 -50.050781 23.546875 -49.359375 23.359375 -48.765625 C 22.960938 -48.378906 22.566406 -47.789062 22.171875 -47 C 21.578125 -46.007812 21.425781 -45.171875 21.71875 -44.484375 C 22.019531 -43.796875 22.46875 -43.453125 23.0625 -43.453125 Z M 23.0625 -43.453125 "/></g></g></g><g clip-path="url(#0f7541ddf9)"><g clip-path="url(#cc2ef55079)"><g clip-path="url(#f911bd6b4e)"><g clip-path="url(#a4193ef290)"><path fill="#000000" d="M 14.621094 204.027344 C 15.484375 196.550781 21.296875 198.546875 20.476562 205.679688 C 16.1875 243.070312 52.195312 262.5 97.371094 260.191406 C 150.488281 257.476562 205.191406 234.417969 237.515625 201.277344 L 239.015625 202.734375 C 208.335938 234.199219 154.285156 259.378906 97.476562 262.28125 C 50.886719 264.664062 10.085938 243.296875 14.621094 204.027344 Z M 14.621094 204.027344 " fill-opacity="1" fill-rule="nonzero"/></g></g></g></g><g fill="#000000" fill-opacity="1"><g transform="translate(29.817785, 198.408162)"><g><path d="M 17.078125 0.75 C 15.160156 0.75 13.507812 0.460938 12.125 -0.109375 C 10.738281 -0.691406 9.617188 -1.507812 8.765625 -2.5625 C 7.910156 -3.625 7.28125 -4.875 6.875 -6.3125 C 6.46875 -7.75 6.265625 -9.320312 6.265625 -11.03125 L 6.265625 -33.234375 L 1.0625 -33.234375 L 1.0625 -38.53125 L 3.625 -38.53125 C 5.1875 -38.632812 6.316406 -39.0625 7.015625 -39.8125 C 7.722656 -40.570312 8.128906 -41.679688 8.234375 -43.140625 L 8.765625 -47.515625 L 13.0625 -47.515625 L 13.0625 -38.984375 L 23.640625 -38.984375 L 23.640625 -33.171875 L 13.0625 -33.171875 L 13.0625 -11.328125 C 13.0625 -9.160156 13.566406 -7.660156 14.578125 -6.828125 C 15.585938 -6.003906 16.820312 -5.59375 18.28125 -5.59375 C 19.132812 -5.59375 20.050781 -5.71875 21.03125 -5.96875 C 22.019531 -6.21875 22.914062 -6.644531 23.71875 -7.25 L 23.71875 -0.53125 C 22.507812 -0.125 21.363281 0.1875 20.28125 0.40625 C 19.195312 0.632812 18.128906 0.75 17.078125 0.75 Z M 17.078125 0.75 "/></g></g></g><g fill="#000000" fill-opacity="1"><g transform="translate(55.655211, 198.408162)"><g><path d="M 4.3125 0 L 4.3125 -19.1875 L 4.234375 -51.90625 L 11.328125 -51.90625 L 11.328125 -40.875 C 11.328125 -39.914062 11.265625 -38.726562 11.140625 -37.3125 C 11.015625 -35.90625 10.875 -34.359375 10.71875 -32.671875 C 10.570312 -30.984375 10.382812 -29.242188 10.15625 -27.453125 C 9.9375 -25.671875 9.75 -23.921875 9.59375 -22.203125 L 10.5 -22.203125 C 11 -26.335938 11.863281 -29.726562 13.09375 -32.375 C 14.332031 -35.019531 15.929688 -36.957031 17.890625 -38.1875 C 19.859375 -39.425781 22.15625 -40.046875 24.78125 -40.046875 C 27.09375 -40.046875 29.015625 -39.613281 30.546875 -38.75 C 32.085938 -37.894531 33.335938 -36.757812 34.296875 -35.34375 C 35.253906 -33.9375 35.957031 -32.390625 36.40625 -30.703125 C 36.863281 -29.015625 37.164062 -27.316406 37.3125 -25.609375 C 37.46875 -23.898438 37.546875 -22.335938 37.546875 -20.921875 L 37.546875 0 L 30.671875 0 L 30.671875 -19.875 C 30.671875 -21.332031 30.609375 -22.863281 30.484375 -24.46875 C 30.359375 -26.082031 30.054688 -27.59375 29.578125 -29 C 29.097656 -30.414062 28.328125 -31.5625 27.265625 -32.4375 C 26.210938 -33.320312 24.726562 -33.765625 22.8125 -33.765625 C 20.445312 -33.765625 18.40625 -32.957031 16.6875 -31.34375 C 14.976562 -29.738281 13.65625 -27.445312 12.71875 -24.46875 C 11.789062 -21.5 11.28125 -17.976562 11.1875 -13.90625 L 11.1875 0 Z M 4.3125 0 "/></g></g></g><g fill="#000000" fill-opacity="1"><g transform="translate(97.055512, 198.408162)"><g><path d="M 4.3125 0 L 4.3125 -38.984375 L 11.1875 -38.984375 L 11.1875 0 Z M 7.703125 -44.5 C 6.242188 -44.5 5.125 -44.828125 4.34375 -45.484375 C 3.5625 -46.140625 3.171875 -47.070312 3.171875 -48.28125 C 3.171875 -49.488281 3.5625 -50.40625 4.34375 -51.03125 C 5.125 -51.65625 6.242188 -51.96875 7.703125 -51.96875 C 9.210938 -51.96875 10.359375 -51.65625 11.140625 -51.03125 C 11.921875 -50.40625 12.3125 -49.460938 12.3125 -48.203125 C 12.3125 -47.046875 11.921875 -46.140625 11.140625 -45.484375 C 10.359375 -44.828125 9.210938 -44.5 7.703125 -44.5 Z M 7.703125 -44.5 "/></g></g></g><g fill="#000000" fill-opacity="1"><g transform="translate(112.618388, 198.408162)"><g><path d="M 4.3125 0 L 4.3125 -20.390625 L 4.234375 -38.984375 L 10.578125 -38.984375 L 9.59375 -22.515625 L 10.5 -22.515625 C 10.957031 -26.890625 11.828125 -30.347656 13.109375 -32.890625 C 14.390625 -35.441406 16 -37.269531 17.9375 -38.375 C 19.875 -39.488281 22.078125 -40.046875 24.546875 -40.046875 C 26.710938 -40.046875 28.5625 -39.65625 30.09375 -38.875 C 31.632812 -38.09375 32.894531 -37.03125 33.875 -35.6875 C 34.863281 -34.351562 35.617188 -32.851562 36.140625 -31.1875 C 36.671875 -29.53125 37.035156 -27.78125 37.234375 -25.9375 C 37.441406 -24.101562 37.546875 -22.304688 37.546875 -20.546875 L 37.546875 0 L 30.671875 0 L 30.671875 -19.71875 C 30.671875 -21.070312 30.609375 -22.554688 30.484375 -24.171875 C 30.359375 -25.785156 30.054688 -27.320312 29.578125 -28.78125 C 29.097656 -30.238281 28.300781 -31.429688 27.1875 -32.359375 C 26.082031 -33.296875 24.550781 -33.765625 22.59375 -33.765625 C 20.175781 -33.765625 18.125 -32.957031 16.4375 -31.34375 C 14.75 -29.738281 13.460938 -27.398438 12.578125 -24.328125 C 11.691406 -21.253906 11.226562 -17.5 11.1875 -13.0625 L 11.1875 0 Z M 4.3125 0 "/></g></g></g><g fill="#000000" fill-opacity="1"><g transform="translate(154.018689, 198.408162)"><g><path d="M 21.609375 0.984375 C 18.535156 0.984375 15.835938 0.503906 13.515625 -0.453125 C 11.203125 -1.410156 9.25 -2.769531 7.65625 -4.53125 C 6.070312 -6.289062 4.878906 -8.390625 4.078125 -10.828125 C 3.273438 -13.273438 2.875 -16.007812 2.875 -19.03125 C 2.875 -21.957031 3.265625 -24.691406 4.046875 -27.234375 C 4.828125 -29.773438 5.972656 -32.003906 7.484375 -33.921875 C 8.992188 -35.835938 10.878906 -37.335938 13.140625 -38.421875 C 15.410156 -39.503906 18.03125 -40.046875 21 -40.046875 C 23.71875 -40.046875 26.132812 -39.578125 28.25 -38.640625 C 30.363281 -37.710938 32.140625 -36.363281 33.578125 -34.59375 C 35.015625 -32.832031 36.0625 -30.664062 36.71875 -28.09375 C 37.375 -25.53125 37.597656 -22.640625 37.390625 -19.421875 L 7.171875 -18.96875 L 7.171875 -23.640625 L 32.640625 -24.03125 L 30.90625 -21.15625 C 31.050781 -23.875 30.757812 -26.1875 30.03125 -28.09375 C 29.300781 -30.007812 28.179688 -31.492188 26.671875 -32.546875 C 25.160156 -33.609375 23.269531 -34.140625 21 -34.140625 C 18.582031 -34.140625 16.515625 -33.523438 14.796875 -32.296875 C 13.085938 -31.066406 11.804688 -29.328125 10.953125 -27.078125 C 10.097656 -24.835938 9.671875 -22.207031 9.671875 -19.1875 C 9.671875 -14.5 10.703125 -10.910156 12.765625 -8.421875 C 14.828125 -5.929688 17.847656 -4.6875 21.828125 -4.6875 C 23.691406 -4.6875 25.253906 -4.960938 26.515625 -5.515625 C 27.773438 -6.066406 28.796875 -6.78125 29.578125 -7.65625 C 30.359375 -8.539062 30.925781 -9.507812 31.28125 -10.5625 C 31.632812 -11.625 31.832031 -12.660156 31.875 -13.671875 L 38.234375 -12.921875 C 38.078125 -10.859375 37.609375 -8.984375 36.828125 -7.296875 C 36.046875 -5.609375 34.945312 -4.144531 33.53125 -2.90625 C 32.125 -1.675781 30.425781 -0.71875 28.4375 -0.03125 C 26.445312 0.644531 24.171875 0.984375 21.609375 0.984375 Z M 21.609375 0.984375 "/></g></g></g><g fill="#000000" fill-opacity="1"><g transform="translate(194.436886, 198.408162)"><g><path d="M 19.484375 0.984375 C 16.921875 0.984375 14.59375 0.703125 12.5 0.140625 C 10.414062 -0.410156 8.613281 -1.238281 7.09375 -2.34375 C 5.582031 -3.445312 4.445312 -4.894531 3.6875 -6.6875 C 2.9375 -8.476562 2.613281 -10.582031 2.71875 -13 L 8.921875 -13.90625 C 8.765625 -11.6875 9.125 -9.894531 10 -8.53125 C 10.882812 -7.175781 12.171875 -6.179688 13.859375 -5.546875 C 15.546875 -4.921875 17.523438 -4.609375 19.796875 -4.609375 C 22.765625 -4.609375 25.066406 -5.097656 26.703125 -6.078125 C 28.335938 -7.066406 29.15625 -8.441406 29.15625 -10.203125 C 29.15625 -11.609375 28.703125 -12.703125 27.796875 -13.484375 C 26.890625 -14.265625 25.644531 -14.894531 24.0625 -15.375 C 22.476562 -15.851562 20.628906 -16.296875 18.515625 -16.703125 C 16.546875 -17.097656 14.640625 -17.546875 12.796875 -18.046875 C 10.960938 -18.554688 9.316406 -19.210938 7.859375 -20.015625 C 6.398438 -20.828125 5.253906 -21.898438 4.421875 -23.234375 C 3.585938 -24.566406 3.171875 -26.238281 3.171875 -28.25 C 3.171875 -30.664062 3.800781 -32.742188 5.0625 -34.484375 C 6.320312 -36.222656 8.097656 -37.582031 10.390625 -38.5625 C 12.679688 -39.550781 15.390625 -40.046875 18.515625 -40.046875 C 21.535156 -40.046875 24.226562 -39.566406 26.59375 -38.609375 C 28.957031 -37.648438 30.816406 -36.1875 32.171875 -34.21875 C 33.535156 -32.257812 34.191406 -29.769531 34.140625 -26.75 L 28.03125 -25.6875 C 28.082031 -27.644531 27.691406 -29.265625 26.859375 -30.546875 C 26.023438 -31.835938 24.863281 -32.8125 23.375 -33.46875 C 21.894531 -34.125 20.171875 -34.453125 18.203125 -34.453125 C 15.640625 -34.453125 13.585938 -33.9375 12.046875 -32.90625 C 10.515625 -31.875 9.75 -30.472656 9.75 -28.703125 C 9.75 -27.242188 10.210938 -26.109375 11.140625 -25.296875 C 12.078125 -24.492188 13.347656 -23.878906 14.953125 -23.453125 C 16.566406 -23.023438 18.378906 -22.632812 20.390625 -22.28125 C 22.253906 -21.925781 24.09375 -21.507812 25.90625 -21.03125 C 27.71875 -20.5625 29.367188 -19.921875 30.859375 -19.109375 C 32.347656 -18.304688 33.53125 -17.210938 34.40625 -15.828125 C 35.289062 -14.441406 35.734375 -12.640625 35.734375 -10.421875 C 35.734375 -8.054688 35.078125 -6.015625 33.765625 -4.296875 C 32.460938 -2.585938 30.585938 -1.28125 28.140625 -0.375 C 25.703125 0.53125 22.816406 0.984375 19.484375 0.984375 Z M 19.484375 0.984375 "/></g></g></g></svg>